<mxfile host="app.diagrams.net" modified="2022-01-02T13:18:57.178Z" agent="5.0 (Windows NT 10.0; Win64; x64) AppleWebKit/537.36 (KHTML, like Gecko) Chrome/96.0.4664.110 Safari/537.36" etag="lv1wSyr0yy4KesSvOHhy" version="14.9.8" type="github">
  <diagram id="lbfQmCa6lwjdrvD3shnV" name="Page-1">
    <mxGraphModel dx="1422" dy="705" grid="1" gridSize="10" guides="1" tooltips="1" connect="1" arrows="1" fold="1" page="1" pageScale="1" pageWidth="850" pageHeight="1100" math="0" shadow="0">
      <root>
        <mxCell id="0" />
        <mxCell id="1" parent="0" />
        <mxCell id="1WkqQtghBWtEtzldfZGd-91" value="&lt;b&gt;Host System&lt;/b&gt;" style="rounded=0;whiteSpace=wrap;html=1;dashed=1;dashPattern=1 1;strokeWidth=1.5;fillColor=none;verticalAlign=bottom;align=left;" vertex="1" parent="1">
          <mxGeometry x="130" y="100" width="580" height="90" as="geometry" />
        </mxCell>
        <mxCell id="1WkqQtghBWtEtzldfZGd-90" value="&lt;font style=&quot;font-size: 12px&quot;&gt;&lt;b&gt;Network Interface Card (NIC)&lt;/b&gt;&lt;/font&gt;" style="rounded=0;whiteSpace=wrap;html=1;fillColor=none;verticalAlign=top;dashed=1;dashPattern=1 1;strokeWidth=1.5;align=left;" vertex="1" parent="1">
          <mxGeometry x="130" y="200" width="580" height="270" as="geometry" />
        </mxCell>
        <mxCell id="1WkqQtghBWtEtzldfZGd-75" value="" style="ellipse;whiteSpace=wrap;html=1;verticalAlign=top;fillColor=none;" vertex="1" parent="1">
          <mxGeometry x="300" y="124" width="125" height="50" as="geometry" />
        </mxCell>
        <mxCell id="1WkqQtghBWtEtzldfZGd-138" style="edgeStyle=none;rounded=0;orthogonalLoop=1;jettySize=auto;html=1;entryX=0.5;entryY=0;entryDx=0;entryDy=0;fontSize=16;fontColor=#000000;endArrow=classic;endFill=1;strokeColor=#000000;dashed=1;exitX=0.5;exitY=0;exitDx=0;exitDy=0;" edge="1" parent="1" source="1WkqQtghBWtEtzldfZGd-3">
          <mxGeometry relative="1" as="geometry">
            <mxPoint x="640" y="174" as="targetPoint" />
          </mxGeometry>
        </mxCell>
        <mxCell id="1WkqQtghBWtEtzldfZGd-1" value="Core 0" style="rounded=0;whiteSpace=wrap;html=1;" vertex="1" parent="1">
          <mxGeometry x="630" y="144" width="50" height="30" as="geometry" />
        </mxCell>
        <mxCell id="1WkqQtghBWtEtzldfZGd-2" value="P0" style="ellipse;whiteSpace=wrap;html=1;" vertex="1" parent="1">
          <mxGeometry x="630" y="114" width="50" height="30" as="geometry" />
        </mxCell>
        <mxCell id="1WkqQtghBWtEtzldfZGd-135" style="edgeStyle=none;rounded=0;orthogonalLoop=1;jettySize=auto;html=1;exitX=0.25;exitY=0;exitDx=0;exitDy=0;fontSize=16;fontColor=#000000;endArrow=none;endFill=0;strokeColor=#000000;" edge="1" parent="1" source="1WkqQtghBWtEtzldfZGd-3">
          <mxGeometry relative="1" as="geometry">
            <mxPoint x="510" y="210" as="targetPoint" />
            <Array as="points">
              <mxPoint x="630" y="210" />
            </Array>
          </mxGeometry>
        </mxCell>
        <mxCell id="1WkqQtghBWtEtzldfZGd-3" value="" style="rounded=0;whiteSpace=wrap;html=1;fontStyle=0" vertex="1" parent="1">
          <mxGeometry x="630" y="220" width="20" height="60" as="geometry" />
        </mxCell>
        <mxCell id="1WkqQtghBWtEtzldfZGd-4" value="" style="rounded=0;whiteSpace=wrap;html=1;fontStyle=0" vertex="1" parent="1">
          <mxGeometry x="660" y="220" width="20" height="60" as="geometry" />
        </mxCell>
        <mxCell id="1WkqQtghBWtEtzldfZGd-5" value="Rx Queue" style="text;html=1;strokeColor=none;fillColor=none;align=center;verticalAlign=middle;whiteSpace=wrap;rounded=0;rotation=-90;" vertex="1" parent="1">
          <mxGeometry x="580" y="240" width="70" height="20" as="geometry" />
        </mxCell>
        <mxCell id="1WkqQtghBWtEtzldfZGd-6" value="Tx Queue" style="text;html=1;strokeColor=none;fillColor=none;align=center;verticalAlign=middle;whiteSpace=wrap;rounded=0;rotation=-90;" vertex="1" parent="1">
          <mxGeometry x="660" y="240" width="70" height="20" as="geometry" />
        </mxCell>
        <mxCell id="1WkqQtghBWtEtzldfZGd-7" value="" style="rounded=0;whiteSpace=wrap;html=1;" vertex="1" parent="1">
          <mxGeometry x="632.5" y="260" width="15" height="10" as="geometry" />
        </mxCell>
        <mxCell id="1WkqQtghBWtEtzldfZGd-31" style="rounded=0;orthogonalLoop=1;jettySize=auto;html=1;" edge="1" parent="1" source="1WkqQtghBWtEtzldfZGd-9">
          <mxGeometry relative="1" as="geometry">
            <mxPoint x="670" y="430" as="targetPoint" />
            <Array as="points">
              <mxPoint x="670" y="370" />
            </Array>
          </mxGeometry>
        </mxCell>
        <mxCell id="1WkqQtghBWtEtzldfZGd-9" value="" style="rounded=0;whiteSpace=wrap;html=1;" vertex="1" parent="1">
          <mxGeometry x="662.5" y="260" width="15" height="10" as="geometry" />
        </mxCell>
        <mxCell id="1WkqQtghBWtEtzldfZGd-44" style="edgeStyle=none;rounded=0;orthogonalLoop=1;jettySize=auto;html=1;exitX=0.5;exitY=0;exitDx=0;exitDy=0;dashed=1;" edge="1" parent="1" source="1WkqQtghBWtEtzldfZGd-13">
          <mxGeometry relative="1" as="geometry">
            <mxPoint x="425" y="290" as="targetPoint" />
          </mxGeometry>
        </mxCell>
        <mxCell id="1WkqQtghBWtEtzldfZGd-13" value="Hash Table (Flow -&amp;gt; Core)" style="rounded=0;whiteSpace=wrap;html=1;align=left;verticalAlign=top;fontStyle=0" vertex="1" parent="1">
          <mxGeometry x="330" y="310" width="190" height="120" as="geometry" />
        </mxCell>
        <mxCell id="1WkqQtghBWtEtzldfZGd-21" style="edgeStyle=orthogonalEdgeStyle;rounded=0;orthogonalLoop=1;jettySize=auto;html=1;" edge="1" parent="1">
          <mxGeometry relative="1" as="geometry">
            <mxPoint x="670" y="490" as="targetPoint" />
            <mxPoint x="670" y="450" as="sourcePoint" />
          </mxGeometry>
        </mxCell>
        <mxCell id="1WkqQtghBWtEtzldfZGd-22" value="" style="rounded=0;whiteSpace=wrap;html=1;" vertex="1" parent="1">
          <mxGeometry x="662.5" y="433" width="15" height="10" as="geometry" />
        </mxCell>
        <mxCell id="1WkqQtghBWtEtzldfZGd-36" style="edgeStyle=none;rounded=0;orthogonalLoop=1;jettySize=auto;html=1;entryX=1;entryY=0.5;entryDx=0;entryDy=0;dashed=1;strokeColor=#FF0000;" edge="1" parent="1" target="1WkqQtghBWtEtzldfZGd-23">
          <mxGeometry relative="1" as="geometry">
            <mxPoint x="594" y="411" as="targetPoint" />
            <mxPoint x="670" y="351" as="sourcePoint" />
          </mxGeometry>
        </mxCell>
        <mxCell id="1WkqQtghBWtEtzldfZGd-37" style="edgeStyle=none;rounded=0;orthogonalLoop=1;jettySize=auto;html=1;exitX=0;exitY=0.5;exitDx=0;exitDy=0;entryX=1;entryY=0.5;entryDx=0;entryDy=0;dashed=1;strokeColor=#FF0000;" edge="1" parent="1" source="1WkqQtghBWtEtzldfZGd-23">
          <mxGeometry relative="1" as="geometry">
            <mxPoint x="520" y="351" as="targetPoint" />
          </mxGeometry>
        </mxCell>
        <mxCell id="1WkqQtghBWtEtzldfZGd-23" value="Tx Parser" style="rounded=0;whiteSpace=wrap;html=1;strokeColor=#FF0000;fontStyle=0;perimeterSpacing=0;" vertex="1" parent="1">
          <mxGeometry x="567" y="331" width="87" height="40" as="geometry" />
        </mxCell>
        <mxCell id="1WkqQtghBWtEtzldfZGd-34" value="" style="rounded=0;whiteSpace=wrap;html=1;" vertex="1" parent="1">
          <mxGeometry x="162" y="432" width="15" height="10" as="geometry" />
        </mxCell>
        <mxCell id="1WkqQtghBWtEtzldfZGd-42" style="edgeStyle=none;rounded=0;orthogonalLoop=1;jettySize=auto;html=1;dashed=1;entryX=0;entryY=0.5;entryDx=0;entryDy=0;" edge="1" parent="1" target="1WkqQtghBWtEtzldfZGd-35">
          <mxGeometry relative="1" as="geometry">
            <mxPoint x="170" y="370" as="targetPoint" />
            <mxPoint x="170" y="370" as="sourcePoint" />
          </mxGeometry>
        </mxCell>
        <mxCell id="1WkqQtghBWtEtzldfZGd-43" style="edgeStyle=none;rounded=0;orthogonalLoop=1;jettySize=auto;html=1;exitX=1;exitY=0.5;exitDx=0;exitDy=0;entryX=0;entryY=0.5;entryDx=0;entryDy=0;dashed=1;" edge="1" parent="1" source="1WkqQtghBWtEtzldfZGd-35" target="1WkqQtghBWtEtzldfZGd-13">
          <mxGeometry relative="1" as="geometry" />
        </mxCell>
        <mxCell id="1WkqQtghBWtEtzldfZGd-35" value="Rx Parser" style="rounded=0;whiteSpace=wrap;html=1;fontStyle=0" vertex="1" parent="1">
          <mxGeometry x="189.5" y="350" width="87" height="40" as="geometry" />
        </mxCell>
        <mxCell id="1WkqQtghBWtEtzldfZGd-38" style="rounded=0;orthogonalLoop=1;jettySize=auto;html=1;entryX=0.5;entryY=1;entryDx=0;entryDy=0;" edge="1" parent="1" target="1WkqQtghBWtEtzldfZGd-7">
          <mxGeometry relative="1" as="geometry">
            <mxPoint x="170" y="380" as="sourcePoint" />
            <mxPoint x="180" y="450" as="targetPoint" />
            <Array as="points">
              <mxPoint x="170" y="430" />
              <mxPoint x="170" y="290" />
              <mxPoint x="640" y="290" />
            </Array>
          </mxGeometry>
        </mxCell>
        <mxCell id="1WkqQtghBWtEtzldfZGd-41" style="edgeStyle=orthogonalEdgeStyle;rounded=0;orthogonalLoop=1;jettySize=auto;html=1;" edge="1" parent="1">
          <mxGeometry relative="1" as="geometry">
            <mxPoint x="169" y="450" as="targetPoint" />
            <mxPoint x="169" y="490" as="sourcePoint" />
          </mxGeometry>
        </mxCell>
        <mxCell id="1WkqQtghBWtEtzldfZGd-63" value="Core n" style="rounded=0;whiteSpace=wrap;html=1;" vertex="1" parent="1">
          <mxGeometry x="500" y="144" width="50" height="30" as="geometry" />
        </mxCell>
        <mxCell id="1WkqQtghBWtEtzldfZGd-65" value="" style="rounded=0;whiteSpace=wrap;html=1;" vertex="1" parent="1">
          <mxGeometry x="500" y="220" width="20" height="60" as="geometry" />
        </mxCell>
        <mxCell id="1WkqQtghBWtEtzldfZGd-66" value="" style="rounded=0;whiteSpace=wrap;html=1;fontStyle=0" vertex="1" parent="1">
          <mxGeometry x="530" y="220" width="20" height="60" as="geometry" />
        </mxCell>
        <mxCell id="1WkqQtghBWtEtzldfZGd-69" value="" style="rounded=0;whiteSpace=wrap;html=1;" vertex="1" parent="1">
          <mxGeometry x="502.5" y="260" width="15" height="10" as="geometry" />
        </mxCell>
        <mxCell id="1WkqQtghBWtEtzldfZGd-70" value="" style="rounded=0;whiteSpace=wrap;html=1;" vertex="1" parent="1">
          <mxGeometry x="532.5" y="260" width="15" height="10" as="geometry" />
        </mxCell>
        <mxCell id="1WkqQtghBWtEtzldfZGd-71" value="&lt;font style=&quot;font-size: 24px&quot;&gt;...&lt;/font&gt;" style="text;html=1;strokeColor=none;fillColor=none;align=center;verticalAlign=middle;whiteSpace=wrap;rounded=0;" vertex="1" parent="1">
          <mxGeometry x="560" y="144" width="40" height="20" as="geometry" />
        </mxCell>
        <mxCell id="1WkqQtghBWtEtzldfZGd-72" value="&lt;font style=&quot;font-size: 24px&quot;&gt;...&lt;/font&gt;" style="text;html=1;strokeColor=none;fillColor=none;align=center;verticalAlign=middle;whiteSpace=wrap;rounded=0;" vertex="1" parent="1">
          <mxGeometry x="560" y="230" width="40" height="20" as="geometry" />
        </mxCell>
        <mxCell id="1WkqQtghBWtEtzldfZGd-77" style="edgeStyle=none;rounded=0;orthogonalLoop=1;jettySize=auto;html=1;exitX=0.5;exitY=0;exitDx=0;exitDy=0;entryX=0.5;entryY=0;entryDx=0;entryDy=0;endArrow=none;endFill=0;" edge="1" parent="1" source="1WkqQtghBWtEtzldfZGd-74" target="1WkqQtghBWtEtzldfZGd-75">
          <mxGeometry relative="1" as="geometry" />
        </mxCell>
        <mxCell id="1WkqQtghBWtEtzldfZGd-78" style="edgeStyle=none;rounded=0;orthogonalLoop=1;jettySize=auto;html=1;exitX=1;exitY=0;exitDx=0;exitDy=0;entryX=1;entryY=0;entryDx=0;entryDy=0;endArrow=none;endFill=0;" edge="1" parent="1" source="1WkqQtghBWtEtzldfZGd-74" target="1WkqQtghBWtEtzldfZGd-75">
          <mxGeometry relative="1" as="geometry" />
        </mxCell>
        <mxCell id="1WkqQtghBWtEtzldfZGd-79" style="edgeStyle=none;rounded=0;orthogonalLoop=1;jettySize=auto;html=1;exitX=1;exitY=0.5;exitDx=0;exitDy=0;entryX=1;entryY=0.5;entryDx=0;entryDy=0;endArrow=none;endFill=0;" edge="1" parent="1" source="1WkqQtghBWtEtzldfZGd-74" target="1WkqQtghBWtEtzldfZGd-75">
          <mxGeometry relative="1" as="geometry" />
        </mxCell>
        <mxCell id="1WkqQtghBWtEtzldfZGd-80" style="edgeStyle=none;rounded=0;orthogonalLoop=1;jettySize=auto;html=1;exitX=1;exitY=1;exitDx=0;exitDy=0;entryX=1;entryY=1;entryDx=0;entryDy=0;endArrow=none;endFill=0;" edge="1" parent="1" source="1WkqQtghBWtEtzldfZGd-74" target="1WkqQtghBWtEtzldfZGd-75">
          <mxGeometry relative="1" as="geometry" />
        </mxCell>
        <mxCell id="1WkqQtghBWtEtzldfZGd-81" style="edgeStyle=none;rounded=0;orthogonalLoop=1;jettySize=auto;html=1;exitX=0.5;exitY=1;exitDx=0;exitDy=0;entryX=0.5;entryY=1;entryDx=0;entryDy=0;endArrow=none;endFill=0;" edge="1" parent="1" source="1WkqQtghBWtEtzldfZGd-74" target="1WkqQtghBWtEtzldfZGd-75">
          <mxGeometry relative="1" as="geometry" />
        </mxCell>
        <mxCell id="1WkqQtghBWtEtzldfZGd-82" style="edgeStyle=none;rounded=0;orthogonalLoop=1;jettySize=auto;html=1;exitX=0;exitY=1;exitDx=0;exitDy=0;entryX=0;entryY=1;entryDx=0;entryDy=0;endArrow=none;endFill=0;" edge="1" parent="1" source="1WkqQtghBWtEtzldfZGd-74" target="1WkqQtghBWtEtzldfZGd-75">
          <mxGeometry relative="1" as="geometry" />
        </mxCell>
        <mxCell id="1WkqQtghBWtEtzldfZGd-83" style="edgeStyle=none;rounded=0;orthogonalLoop=1;jettySize=auto;html=1;exitX=0;exitY=0.5;exitDx=0;exitDy=0;entryX=0;entryY=0.5;entryDx=0;entryDy=0;endArrow=none;endFill=0;" edge="1" parent="1" source="1WkqQtghBWtEtzldfZGd-74" target="1WkqQtghBWtEtzldfZGd-75">
          <mxGeometry relative="1" as="geometry" />
        </mxCell>
        <mxCell id="1WkqQtghBWtEtzldfZGd-84" style="edgeStyle=none;rounded=0;orthogonalLoop=1;jettySize=auto;html=1;exitX=0;exitY=0;exitDx=0;exitDy=0;entryX=0;entryY=0;entryDx=0;entryDy=0;endArrow=none;endFill=0;" edge="1" parent="1" source="1WkqQtghBWtEtzldfZGd-74" target="1WkqQtghBWtEtzldfZGd-75">
          <mxGeometry relative="1" as="geometry" />
        </mxCell>
        <mxCell id="1WkqQtghBWtEtzldfZGd-74" value="" style="ellipse;whiteSpace=wrap;html=1;fillColor=none;verticalAlign=top;" vertex="1" parent="1">
          <mxGeometry x="300" y="114" width="123.75" height="50" as="geometry" />
        </mxCell>
        <mxCell id="1WkqQtghBWtEtzldfZGd-85" value="Ring buffer" style="text;html=1;strokeColor=none;fillColor=none;align=center;verticalAlign=middle;whiteSpace=wrap;rounded=0;" vertex="1" parent="1">
          <mxGeometry x="327" y="138" width="70" height="20" as="geometry" />
        </mxCell>
        <mxCell id="1WkqQtghBWtEtzldfZGd-86" value="Tx" style="text;html=1;strokeColor=none;fillColor=none;align=center;verticalAlign=middle;whiteSpace=wrap;rounded=0;" vertex="1" parent="1">
          <mxGeometry x="520" y="220" width="40" height="20" as="geometry" />
        </mxCell>
        <mxCell id="1WkqQtghBWtEtzldfZGd-88" style="edgeStyle=none;rounded=0;orthogonalLoop=1;jettySize=auto;html=1;exitX=0.5;exitY=0;exitDx=0;exitDy=0;endArrow=classic;endFill=1;" edge="1" parent="1" source="1WkqQtghBWtEtzldfZGd-87">
          <mxGeometry relative="1" as="geometry">
            <mxPoint x="360" y="170" as="targetPoint" />
            <Array as="points">
              <mxPoint x="510" y="210" />
              <mxPoint x="360" y="210" />
            </Array>
          </mxGeometry>
        </mxCell>
        <mxCell id="1WkqQtghBWtEtzldfZGd-87" value="Rx" style="text;html=1;strokeColor=none;fillColor=none;align=center;verticalAlign=middle;whiteSpace=wrap;rounded=0;fontStyle=0" vertex="1" parent="1">
          <mxGeometry x="490" y="220" width="40" height="20" as="geometry" />
        </mxCell>
        <mxCell id="1WkqQtghBWtEtzldfZGd-100" style="edgeStyle=none;rounded=0;orthogonalLoop=1;jettySize=auto;html=1;exitX=1;exitY=0.5;exitDx=0;exitDy=0;entryX=0;entryY=0.5;entryDx=0;entryDy=0;fontSize=10;endArrow=classic;endFill=1;" edge="1" parent="1" source="1WkqQtghBWtEtzldfZGd-92" target="1WkqQtghBWtEtzldfZGd-94">
          <mxGeometry relative="1" as="geometry" />
        </mxCell>
        <mxCell id="1WkqQtghBWtEtzldfZGd-92" value="&lt;font style=&quot;font-size: 10px&quot;&gt;Fi: Hash of packet fields&lt;/font&gt;" style="rounded=0;whiteSpace=wrap;html=1;strokeWidth=1;fillColor=none;align=center;verticalAlign=middle;" vertex="1" parent="1">
          <mxGeometry x="340" y="340" width="120" height="20" as="geometry" />
        </mxCell>
        <mxCell id="1WkqQtghBWtEtzldfZGd-94" value="C0" style="rounded=0;whiteSpace=wrap;html=1;strokeWidth=1;fillColor=none;align=center;verticalAlign=middle;fontSize=10;" vertex="1" parent="1">
          <mxGeometry x="490" y="340" width="27.5" height="20" as="geometry" />
        </mxCell>
        <mxCell id="1WkqQtghBWtEtzldfZGd-95" value="Ck" style="rounded=0;whiteSpace=wrap;html=1;strokeWidth=1;fillColor=none;align=center;verticalAlign=middle;fontSize=10;" vertex="1" parent="1">
          <mxGeometry x="490" y="390" width="27.5" height="20" as="geometry" />
        </mxCell>
        <mxCell id="1WkqQtghBWtEtzldfZGd-96" value="incoming packet" style="text;html=1;strokeColor=none;fillColor=none;align=center;verticalAlign=middle;whiteSpace=wrap;rounded=0;" vertex="1" parent="1">
          <mxGeometry x="190" y="428" width="90" height="20" as="geometry" />
        </mxCell>
        <mxCell id="1WkqQtghBWtEtzldfZGd-97" value="outgoing packet" style="text;html=1;strokeColor=none;fillColor=none;align=center;verticalAlign=middle;whiteSpace=wrap;rounded=0;" vertex="1" parent="1">
          <mxGeometry x="560" y="428" width="90" height="20" as="geometry" />
        </mxCell>
        <mxCell id="1WkqQtghBWtEtzldfZGd-101" style="edgeStyle=none;rounded=0;orthogonalLoop=1;jettySize=auto;html=1;exitX=1;exitY=0.5;exitDx=0;exitDy=0;entryX=0;entryY=0.5;entryDx=0;entryDy=0;fontSize=10;endArrow=classic;endFill=1;strokeColor=#000000;" edge="1" parent="1" source="1WkqQtghBWtEtzldfZGd-99" target="1WkqQtghBWtEtzldfZGd-95">
          <mxGeometry relative="1" as="geometry" />
        </mxCell>
        <mxCell id="1WkqQtghBWtEtzldfZGd-99" value="&lt;font style=&quot;font-size: 10px&quot;&gt;Fj: Hash of packet fields&lt;/font&gt;" style="rounded=0;whiteSpace=wrap;html=1;strokeWidth=1;fillColor=none;align=center;verticalAlign=middle;" vertex="1" parent="1">
          <mxGeometry x="340" y="390" width="120" height="20" as="geometry" />
        </mxCell>
        <mxCell id="1WkqQtghBWtEtzldfZGd-102" value="&lt;font style=&quot;font-size: 16px;&quot;&gt;...&lt;/font&gt;" style="text;html=1;strokeColor=none;fillColor=none;align=center;verticalAlign=middle;whiteSpace=wrap;rounded=0;rotation=90;fontSize=16;" vertex="1" parent="1">
          <mxGeometry x="397" y="365" width="40" height="20" as="geometry" />
        </mxCell>
        <mxCell id="1WkqQtghBWtEtzldfZGd-103" value="&lt;font style=&quot;font-size: 16px;&quot;&gt;...&lt;/font&gt;" style="text;html=1;strokeColor=none;fillColor=none;align=center;verticalAlign=middle;whiteSpace=wrap;rounded=0;rotation=90;fontSize=16;" vertex="1" parent="1">
          <mxGeometry x="477.5" y="365" width="40" height="20" as="geometry" />
        </mxCell>
        <mxCell id="1WkqQtghBWtEtzldfZGd-104" value="1" style="ellipse;whiteSpace=wrap;html=1;aspect=fixed;strokeWidth=2;fontFamily=Tahoma;spacingBottom=4;spacingRight=2;strokeColor=#d3d3d3;fontSize=16;fillColor=none;align=center;verticalAlign=middle;" vertex="1" parent="1">
          <mxGeometry x="685" y="164" width="20" height="20" as="geometry" />
        </mxCell>
        <mxCell id="1WkqQtghBWtEtzldfZGd-105" value="2" style="ellipse;whiteSpace=wrap;html=1;aspect=fixed;strokeWidth=2;fontFamily=Tahoma;spacingBottom=4;spacingRight=2;strokeColor=#d3d3d3;fontSize=16;fillColor=none;align=center;verticalAlign=middle;" vertex="1" parent="1">
          <mxGeometry x="677.5" y="290" width="20" height="20" as="geometry" />
        </mxCell>
        <mxCell id="1WkqQtghBWtEtzldfZGd-108" value="4" style="ellipse;whiteSpace=wrap;html=1;aspect=fixed;strokeWidth=2;fontFamily=Tahoma;spacingBottom=4;spacingRight=2;strokeColor=#d3d3d3;fontSize=16;fillColor=none;align=center;verticalAlign=middle;" vertex="1" parent="1">
          <mxGeometry x="677.5" y="443" width="20" height="20" as="geometry" />
        </mxCell>
        <mxCell id="1WkqQtghBWtEtzldfZGd-109" value="5" style="ellipse;whiteSpace=wrap;html=1;aspect=fixed;strokeWidth=2;fontFamily=Tahoma;spacingBottom=4;spacingRight=2;strokeColor=#d3d3d3;fontSize=16;fillColor=none;align=center;verticalAlign=middle;" vertex="1" parent="1">
          <mxGeometry x="142" y="443" width="20" height="20" as="geometry" />
        </mxCell>
        <mxCell id="1WkqQtghBWtEtzldfZGd-110" value="6" style="ellipse;whiteSpace=wrap;html=1;aspect=fixed;strokeWidth=2;fontFamily=Tahoma;spacingBottom=4;spacingRight=2;strokeColor=#d3d3d3;fontSize=16;fillColor=none;align=center;verticalAlign=middle;" vertex="1" parent="1">
          <mxGeometry x="224" y="329" width="20" height="20" as="geometry" />
        </mxCell>
        <mxCell id="1WkqQtghBWtEtzldfZGd-111" value="7" style="ellipse;whiteSpace=wrap;html=1;aspect=fixed;strokeWidth=2;fontFamily=Tahoma;spacingBottom=4;spacingRight=2;strokeColor=#d3d3d3;fontSize=16;fillColor=none;align=center;verticalAlign=middle;" vertex="1" parent="1">
          <mxGeometry x="425" y="268" width="20" height="20" as="geometry" />
        </mxCell>
        <mxCell id="1WkqQtghBWtEtzldfZGd-116" value="3" style="ellipse;whiteSpace=wrap;html=1;aspect=fixed;strokeWidth=2;fontFamily=Tahoma;spacingBottom=4;spacingRight=2;strokeColor=#d3d3d3;fontSize=16;fillColor=none;align=center;verticalAlign=middle;" vertex="1" parent="1">
          <mxGeometry x="605" y="310" width="20" height="20" as="geometry" />
        </mxCell>
        <mxCell id="1WkqQtghBWtEtzldfZGd-118" value="8" style="ellipse;whiteSpace=wrap;html=1;aspect=fixed;strokeWidth=2;fontFamily=Tahoma;spacingBottom=4;spacingRight=2;strokeColor=#d3d3d3;fontSize=16;fillColor=none;align=center;verticalAlign=middle;" vertex="1" parent="1">
          <mxGeometry x="360" y="213" width="20" height="20" as="geometry" />
        </mxCell>
        <mxCell id="1WkqQtghBWtEtzldfZGd-119" style="edgeStyle=orthogonalEdgeStyle;rounded=0;orthogonalLoop=1;jettySize=auto;html=1;" edge="1" parent="1">
          <mxGeometry relative="1" as="geometry">
            <mxPoint x="316" y="500" as="targetPoint" />
            <mxPoint x="262.5" y="500" as="sourcePoint" />
          </mxGeometry>
        </mxCell>
        <mxCell id="1WkqQtghBWtEtzldfZGd-120" style="edgeStyle=none;rounded=0;orthogonalLoop=1;jettySize=auto;html=1;dashed=1;entryX=0;entryY=0.5;entryDx=0;entryDy=0;" edge="1" parent="1">
          <mxGeometry relative="1" as="geometry">
            <mxPoint x="467.5" y="500" as="targetPoint" />
            <mxPoint x="427.5" y="500" as="sourcePoint" />
          </mxGeometry>
        </mxCell>
        <mxCell id="1WkqQtghBWtEtzldfZGd-121" value="Data Path" style="text;html=1;strokeColor=none;fillColor=none;align=center;verticalAlign=middle;whiteSpace=wrap;rounded=0;fontSize=12;" vertex="1" parent="1">
          <mxGeometry x="312.5" y="490" width="80" height="20" as="geometry" />
        </mxCell>
        <mxCell id="1WkqQtghBWtEtzldfZGd-122" value="Control Path" style="text;html=1;strokeColor=none;fillColor=none;align=center;verticalAlign=middle;whiteSpace=wrap;rounded=0;fontSize=12;" vertex="1" parent="1">
          <mxGeometry x="470" y="490" width="80" height="20" as="geometry" />
        </mxCell>
        <mxCell id="1WkqQtghBWtEtzldfZGd-127" value="look up" style="text;html=1;strokeColor=none;fillColor=none;align=center;verticalAlign=middle;whiteSpace=wrap;rounded=0;fontSize=12;" vertex="1" parent="1">
          <mxGeometry x="270" y="370" width="60" height="20" as="geometry" />
        </mxCell>
        <mxCell id="1WkqQtghBWtEtzldfZGd-128" value="update" style="text;html=1;strokeColor=none;fillColor=none;align=center;verticalAlign=middle;whiteSpace=wrap;rounded=0;fontSize=12;fontColor=#FF0000;" vertex="1" parent="1">
          <mxGeometry x="514" y="352" width="60" height="20" as="geometry" />
        </mxCell>
        <mxCell id="1WkqQtghBWtEtzldfZGd-130" value="Queue ID" style="text;html=1;strokeColor=none;fillColor=none;align=center;verticalAlign=middle;whiteSpace=wrap;rounded=0;fontSize=12;" vertex="1" parent="1">
          <mxGeometry x="430" y="290" width="60" height="20" as="geometry" />
        </mxCell>
        <mxCell id="1WkqQtghBWtEtzldfZGd-131" value="DMA" style="text;html=1;strokeColor=none;fillColor=none;align=center;verticalAlign=middle;whiteSpace=wrap;rounded=0;fontSize=12;" vertex="1" parent="1">
          <mxGeometry x="397" y="210" width="60" height="20" as="geometry" />
        </mxCell>
        <mxCell id="1WkqQtghBWtEtzldfZGd-132" value="9" style="ellipse;whiteSpace=wrap;html=1;aspect=fixed;strokeWidth=2;fontFamily=Tahoma;spacingBottom=4;spacingRight=2;strokeColor=#d3d3d3;fontSize=16;fillColor=none;align=center;verticalAlign=middle;" vertex="1" parent="1">
          <mxGeometry x="605" y="164" width="20" height="20" as="geometry" />
        </mxCell>
        <mxCell id="1WkqQtghBWtEtzldfZGd-140" style="edgeStyle=none;rounded=0;orthogonalLoop=1;jettySize=auto;html=1;entryX=0.5;entryY=0;entryDx=0;entryDy=0;fontSize=16;fontColor=#000000;endArrow=classic;endFill=1;strokeColor=#000000;dashed=1;exitX=0.5;exitY=0;exitDx=0;exitDy=0;" edge="1" parent="1">
          <mxGeometry relative="1" as="geometry">
            <mxPoint x="669.5" y="174" as="sourcePoint" />
            <mxPoint x="669.5" y="220" as="targetPoint" />
          </mxGeometry>
        </mxCell>
        <mxCell id="1WkqQtghBWtEtzldfZGd-143" style="edgeStyle=none;rounded=0;orthogonalLoop=1;jettySize=auto;html=1;dashed=1;strokeColor=#FF0000;entryX=1.003;entryY=0.563;entryDx=0;entryDy=0;entryPerimeter=0;" edge="1" parent="1">
          <mxGeometry relative="1" as="geometry">
            <mxPoint x="520.5699999999999" y="399.55999999999995" as="targetPoint" />
            <mxPoint x="670" y="400" as="sourcePoint" />
          </mxGeometry>
        </mxCell>
        <mxCell id="1WkqQtghBWtEtzldfZGd-144" value="&lt;font style=&quot;font-size: 12px&quot;&gt;OR&lt;/font&gt;" style="text;html=1;strokeColor=none;fillColor=none;align=center;verticalAlign=middle;whiteSpace=wrap;rounded=0;fontSize=16;fontColor=#000000;" vertex="1" parent="1">
          <mxGeometry x="580" y="370" width="40" height="20" as="geometry" />
        </mxCell>
      </root>
    </mxGraphModel>
  </diagram>
</mxfile>
